<svg width="26" height="28" viewBox="0 0 26 28" fill="none" xmlns="http://www.w3.org/2000/svg">
<path d="M17.5 25.18L14.91 22.59L13.5 24L17.5 28L25.5 20L24.09 18.59L17.5 25.18Z" fill="#00BB1A"/>
<path d="M20.5 3H17.5V2C17.4984 1.47005 17.2872 0.962265 16.9125 0.587535C16.5377 0.212805 16.0299 0.00158273 15.5 0H7.5C6.97005 0.00158273 6.46227 0.212805 6.08753 0.587535C5.7128 0.962265 5.50158 1.47005 5.5 2V3H2.5C1.97005 3.00158 1.46227 3.2128 1.08753 3.58753C0.712805 3.96227 0.501583 4.47005 0.5 5V26C0.501583 26.5299 0.712805 27.0377 1.08753 27.4125C1.46227 27.7872 1.97005 27.9984 2.5 28H11.5V26H2.5V5H5.5V8H17.5V5H20.5V16H22.5V5C22.4984 4.47005 22.2872 3.96227 21.9125 3.58753C21.5377 3.2128 21.0299 3.00158 20.5 3ZM15.5 6H7.5V2H15.5V6Z" fill="#00BB1A"/>
</svg>
