<svg width="35" height="16" viewBox="0 0 35 16" fill="none" xmlns="http://www.w3.org/2000/svg">
<path d="M34.59 13L30.51 8L34.51 3.1C34.7288 2.83194 34.8666 2.50707 34.9074 2.16348C34.9481 1.81988 34.89 1.47178 34.74 1.16C34.588 0.810539 34.336 0.513896 34.0156 0.307463C33.6953 0.101029 33.321 -0.00595379 32.94 0H1.94C1.68917 -0.0039711 1.44001 0.0415106 1.20676 0.133846C0.973502 0.226182 0.760723 0.363563 0.580571 0.538143C0.400419 0.712724 0.256424 0.921082 0.156808 1.15132C0.0571926 1.38156 0.00390885 1.62917 0 1.88V14.13C0.0105107 14.6348 0.220501 15.115 0.58405 15.4654C0.947598 15.8158 1.43512 16.008 1.94 16H33.05C33.4183 16.0062 33.7806 15.9068 34.0943 15.7137C34.4079 15.5205 34.6597 15.2416 34.82 14.91C34.9639 14.6019 35.0186 14.2597 34.978 13.9221C34.9373 13.5845 34.8029 13.2651 34.59 13ZM2 14V2H32.78L27.94 7.93L32.85 14H2Z" fill="#28B0E8"/>
<path d="M9.39 9.35L6.13 5H5V11.18H6.13V6.84L9.39 11.18H10.51V5H9.39V9.35Z" fill="#28B0E8"/>
<path d="M12.18 11.18H16.84V10.16H13.31V8.55H16.5V7.52H13.31V6.03H16.84V5H12.18V11.18Z" fill="#28B0E8"/>
<path d="M24.52 9.43L23.06 5H21.84L20.37 9.43L19.05 5H17.82L19.78 11.18H20.89L22.45 6.59L24 11.18H25.13L27.08 5H25.85L24.52 9.43Z" fill="#28B0E8"/>
</svg>
