<svg width="22" height="24" viewBox="0 0 22 24" fill="none" xmlns="http://www.w3.org/2000/svg">
<path d="M16.25 8.8421C16.25 15.5747 5.75 15.5747 5.75 8.8421H8.375C8.375 12.2147 13.625 12.2147 13.625 8.8421M21.5 20.2105V24H0.5V20.2105C0.5 16.8379 7.49563 15.1579 11 15.1579C14.5044 15.1579 21.5 16.8379 21.5 20.2105ZM19.0063 20.2105C19.0063 19.4021 14.8981 17.5579 11 17.5579C7.10187 17.5579 2.99375 19.4021 2.99375 20.2105V21.6H19.0063M11.6562 0C12.0238 0 12.3125 0.277895 12.3125 0.631579V4.42105H13.625V1.26316C14.5539 1.67687 15.3321 2.34972 15.8587 3.19438C16.3853 4.03905 16.6359 5.01653 16.5781 6C16.5781 6 17.4969 6.17684 17.5625 7.57895H4.4375C4.4375 6.17684 5.42188 6 5.42188 6C5.36406 5.01653 5.61472 4.03905 6.14131 3.19438C6.66791 2.34972 7.44613 1.67687 8.375 1.26316V4.42105H9.6875V0.631579C9.6875 0.277895 9.97625 0 10.3438 0" fill="#264493"/>
</svg>
